HIERARCHY
ROOT Hips
{
	OFFSET 0.00000 0.00000 0.00000
	CHANNELS 6 Xposition Yposition Zposition Zrotation Yrotation Xrotation 
	JOINT LHipJoint
	{
		OFFSET 0 0 0
		CHANNELS 3 Zrotation Yrotation Xrotation
		JOINT LeftUpLeg
		{
			OFFSET 1.62329 -1.80800 0.67318
			CHANNELS 3 Zrotation Yrotation Xrotation
			JOINT LeftLeg
			{
				OFFSET 2.57139 -7.06484 0.00000
				CHANNELS 3 Zrotation Yrotation Xrotation
				JOINT LeftFoot
				{
					OFFSET 2.52017 -6.92413 0.00000
					CHANNELS 3 Zrotation Yrotation Xrotation
					JOINT LeftToeBase
					{
						OFFSET 0.23295 -0.64001 2.10214
						CHANNELS 3 Zrotation Yrotation Xrotation
						End Site
						{
							OFFSET 0.00000 -0.00000 1.10139
						}
					}
				}
			}
		}
	}
	JOINT RHipJoint
	{
		OFFSET 0 0 0
		CHANNELS 3 Zrotation Yrotation Xrotation
		JOINT RightUpLeg
		{
			OFFSET -1.48061 -1.80800 0.67318
			CHANNELS 3 Zrotation Yrotation Xrotation
			JOINT RightLeg
			{
				OFFSET -2.63258 -7.23296 0.00000
				CHANNELS 3 Zrotation Yrotation Xrotation
				JOINT RightFoot
				{
					OFFSET -2.54779 -7.00000 0.00000
					CHANNELS 3 Zrotation Yrotation Xrotation
					JOINT RightToeBase
					{
						OFFSET -0.23067 -0.63376 2.12161
						CHANNELS 3 Zrotation Yrotation Xrotation
						End Site
						{
							OFFSET -0.00000 -0.00000 1.11000
						}
					}
				}
			}
		}
	}
	JOINT LowerBack
	{
		OFFSET 0 0 0
		CHANNELS 3 Zrotation Yrotation Xrotation
		JOINT Spine
		{
			OFFSET -0.02108 2.07573 -0.16981
			CHANNELS 3 Zrotation Yrotation Xrotation
			JOINT Spine1
			{
				OFFSET 0.05070 2.08439 -0.03141
				CHANNELS 3 Zrotation Yrotation Xrotation
				JOINT Neck
				{
					OFFSET 0 0 0
					CHANNELS 3 Zrotation Yrotation Xrotation
					JOINT Neck1
					{
						OFFSET -0.10731 1.60408 0.31370
						CHANNELS 3 Zrotation Yrotation Xrotation
						JOINT Head
						{
							OFFSET 0.08411 1.65679 -0.30822
							CHANNELS 3 Zrotation Yrotation Xrotation
							End Site
							{
								OFFSET 0.03911 1.69149 -0.14146
							}
						}
					}
				}
				JOINT LeftShoulder
				{
					OFFSET 0 0 0
					CHANNELS 3 Zrotation Yrotation Xrotation
					JOINT LeftArm
					{
						OFFSET 3.52315 0.73219 -0.54694
						CHANNELS 3 Zrotation Yrotation Xrotation
						JOINT LeftForeArm
						{
							OFFSET 5.32462 -0.00000 -0.00000
							CHANNELS 3 Zrotation Yrotation Xrotation
							JOINT LeftHand
							{
								OFFSET 3.48402 -0.00000 -0.00000
								CHANNELS 3 Zrotation Yrotation Xrotation
								JOINT LeftFingerBase
								{
									OFFSET 0 0 0
									CHANNELS 3 Zrotation Yrotation Xrotation
									JOINT LeftHandIndex1
									{
										OFFSET 0.57248 -0.00000 -0.00000
										CHANNELS 3 Zrotation Yrotation Xrotation
										End Site
										{
											OFFSET 0.46154 -0.00000 -0.00000
										}
									}
								}
								JOINT LThumb
								{
									OFFSET 0 0 0
									CHANNELS 3 Zrotation Yrotation Xrotation
									End Site
									{
										OFFSET 0.46859 -0.00000 0.46859
									}
								}
							}
						}
					}
				}
				JOINT RightShoulder
				{
					OFFSET 0 0 0
					CHANNELS 3 Zrotation Yrotation Xrotation
					JOINT RightArm
					{
						OFFSET -3.41766 0.93592 -0.10019
						CHANNELS 3 Zrotation Yrotation Xrotation
						JOINT RightForeArm
						{
							OFFSET -5.33589 -0.00000 -0.00000
							CHANNELS 3 Zrotation Yrotation Xrotation
							JOINT RightHand
							{
								OFFSET -3.64134 -0.00000 -0.00000
								CHANNELS 3 Zrotation Yrotation Xrotation
								JOINT RightFingerBase
								{
									OFFSET 0 0 0
									CHANNELS 3 Zrotation Yrotation Xrotation
									JOINT RightHandIndex1
									{
										OFFSET -0.73481 -0.00000 -0.00000
										CHANNELS 3 Zrotation Yrotation Xrotation
										End Site
										{
											OFFSET -0.59242 -0.00000 -0.00000
										}
									}
								}
								JOINT RThumb
								{
									OFFSET 0 0 0
									CHANNELS 3 Zrotation Yrotation Xrotation
									End Site
									{
										OFFSET -0.60147 -0.00000 0.60147
									}
								}
							}
						}
					}
				}
			}
		}
	}
}
MOTION
Frames: 12
Frame Time: .0083333
-1.0388 17.5044 -2.916 0 0 0 0 0 0 -21 0 0 0 0 0 0 0 0 0 0 0 0 0 0 21 0 0 0 0 0 0 0 0 0 0 0 0 0 0 0 0 0 0 0 0 0 0 -16 0 0 21 0 0 11 0 0 0 -8 0 0 0 0 0 0 0 0 0 0 0 0 0 0 0 0 0 0 0 0 8 0 0 0 0 0 0 0 0 0 0 0 0 0 0 0 0 0
-1.0388 17.5044 -2.9160 -0.0629 -22.4692 5.7800 0.0000 0.0000 0.0000 -20.1105 -1.7204 -14.1972 3.2239 11.0489 32.4451 1.3585 1.0333 -22.4262 0.3732 -3.9238 -10.8624 0.0000 0.0000 0.0000 11.2446 12.6819 -19.6056 -4.1549 -12.3637 37.0311 -0.9678 6.0923 -17.5516 -0.0087 0.6022 -1.6549 -5.1756 -1.0225 2.7985 1.1727 -1.5022 0.6027 4.1641 -0.7433 -0.7840 -12.6773 -5.2678 -18.4256 4.2801 -4.7439 23.0229 2.9374 -2.7855 10.9304 -0.0000 -0.0000 0.0000 -81.5431 -2.1255 41.3700 126.4567 -54.3283 -90.9710 -0.0000 -0.0000 10.1631 17.6350 12.2090 3.8460 -7.1250 0.0000 -0.0000 -8.6627 42.6076 0.5156 -0.0000 -0.0000 0.0000 81.1218 3.7378 41.5967 -143.0426 46.1603 -103.7907 0.0000 -0.0000 -0.9407 -18.6720 19.5749 -6.4596 7.1250 -0.0000 -0.0000 6.2245 -9.5034 5.1426
-1.0616 17.5074 -2.9043 -0.0251 -22.4281 5.6518 0.0000 0.0000 0.0000 -20.0906 -1.7686 -13.9147 3.1917 10.9991 32.2769 1.3337 1.1438 -22.2673 0.4027 -4.0744 -11.2859 0.0000 0.0000 0.0000 11.4020 12.5970 -19.2370 -4.1253 -12.3253 36.8927 -0.9316 6.6166 -17.2215 -0.0014 -0.2440 0.6704 -5.1823 -0.9318 2.8112 1.1535 -1.3837 0.5305 4.1459 -0.6796 -0.8791 -12.7530 -5.2528 -18.3227 4.3552 -4.7355 23.0387 2.9803 -2.7811 10.9200 0.0000 0.0000 0.0000 -81.4034 -2.5842 41.5519 126.4611 -54.3268 -90.9746 -0.0000 -0.0000 9.5162 17.3695 12.3426 3.8252 -7.1250 0.0000 -0.0000 -8.9267 42.7180 0.5070 0.0000 0.0000 0.0000 80.9781 3.9927 41.5996 -142.8242 46.3048 -103.6330 0.0000 -0.0000 -1.0674 -18.6944 19.5095 -6.4473 7.1250 -0.0000 -0.0000 6.2062 -9.5681 5.1192
-1.0818 17.5126 -2.8929 0.0513 -22.3141 5.5144 0.0000 0.0000 0.0000 -20.1086 -1.8436 -13.6644 3.1677 10.9616 32.1506 1.3197 1.1212 -22.1430 0.3737 -3.9265 -10.8701 0.0000 0.0000 0.0000 11.4764 12.6379 -18.8583 -4.0988 -12.2908 36.7686 -0.9647 6.4155 -17.5228 -0.0047 -0.4434 1.2183 -5.1396 -0.9187 2.8054 1.0923 -1.3660 0.4898 4.0581 -0.6687 -0.9222 -12.7006 -5.1975 -18.4800 4.3769 -4.6613 23.2774 2.9921 -2.7449 11.0303 0.0000 -0.0000 0.0000 -81.2354 -3.0511 41.5441 126.5566 -54.2933 -91.0522 -0.0000 -0.0000 8.7977 17.0781 12.5406 3.8164 -7.1250 0.0000 -0.0000 -9.2283 42.8912 0.4847 0.0000 -0.0000 0.0000 80.8540 4.2132 41.7103 -142.5435 46.4886 -103.4297 0.0000 -0.0000 -1.1420 -18.7840 19.6528 -6.5256 7.1250 -0.0000 -0.0000 6.1567 -9.4083 5.0978
-1.1034 17.5160 -2.8872 0.0632 -22.2286 5.4131 0.0000 0.0000 0.0000 -20.0559 -1.9042 -13.4465 3.1505 10.9348 32.0603 1.3152 1.1212 -22.1062 0.3504 -3.8031 -10.5234 0.0000 0.0000 0.0000 11.6019 12.8312 -18.5497 -4.0760 -12.2608 36.6611 -1.0347 5.7555 -18.1663 -0.0002 -0.0905 0.2487 -5.0324 -0.8829 2.8052 1.0333 -1.3165 0.4538 3.9355 -0.6421 -0.9685 -12.6813 -5.1475 -18.5593 4.4403 -4.6066 23.4716 3.0224 -2.7151 11.1132 0.0000 0.0000 0.0000 -81.0146 -3.5607 41.5715 126.6270 -54.2685 -91.1094 -0.0000 -0.0000 8.1740 16.7877 12.6854 3.7902 -7.1250 0.0000 -0.0000 -9.5188 43.0092 0.4722 0.0000 0.0000 0.0000 80.8151 4.3929 41.7886 -142.2035 46.7088 -103.1827 0.0000 -0.0000 -1.0278 -18.8612 19.7743 -6.5927 7.1250 -0.0000 -0.0000 6.1142 -9.2724 5.0789
-1.1258 17.5157 -2.8846 0.0792 -22.2157 5.2978 0.0000 0.0000 0.0000 -20.0142 -2.0884 -13.1897 3.1449 10.9260 32.0308 1.3157 1.3015 -22.1815 0.3521 -3.8126 -10.5502 0.0000 0.0000 0.0000 11.7140 13.0251 -18.3205 -4.0602 -12.2401 36.5866 -1.0584 5.3743 -18.3956 -0.0019 0.2800 -0.7693 -4.9635 -0.8079 2.8286 0.9937 -1.2169 0.4104 3.8535 -0.5897 -1.0391 -12.7045 -5.1011 -18.4620 4.4401 -4.5503 23.5545 3.0373 -2.6954 11.1208 0.0000 0.0000 0.0000 -80.8702 -4.0527 41.6492 126.6270 -54.2685 -91.1094 -0.0000 -0.0000 7.7907 16.4932 12.6143 3.6996 -7.1250 0.0000 -0.0000 -9.7651 42.9058 0.5099 0.0000 0.0000 0.0000 80.7246 4.5063 41.8233 -141.8908 46.9089 -102.9547 0.0000 -0.0000 -0.9779 -18.8918 19.8289 -6.6215 7.1250 -0.0000 -0.0000 6.0978 -9.2118 5.0726
-1.1470 17.5144 -2.8816 0.0257 -22.1405 5.2073 0.0000 0.0000 0.0000 -19.9241 -2.3253 -12.9048 3.1508 10.9352 32.0616 1.3216 1.5291 -22.3232 0.3533 -3.8188 -10.5673 0.0000 0.0000 0.0000 11.8747 13.1452 -18.1118 -4.0543 -12.2323 36.5587 -1.0311 5.4838 -18.1450 -0.0000 -0.0316 0.0869 -4.8534 -0.7491 3.0063 1.0125 -1.1464 0.2774 3.8135 -0.5454 -1.2849 -12.9920 -5.0390 -18.1117 4.7406 -4.5068 23.4474 3.2058 -2.6669 11.0241 0.0000 0.0000 0.0000 -80.7981 -4.3916 41.6936 126.6328 -54.2664 -91.1141 -0.0000 -0.0000 7.3950 16.3241 12.4621 3.6163 -7.1250 0.0000 -0.0000 -9.8814 42.7331 0.5586 0.0000 0.0000 0.0000 80.5385 4.4810 41.8643 -141.6361 47.0701 -102.7685 0.0000 -0.0000 -1.1361 -18.8007 19.8198 -6.5846 7.1250 -0.0000 -0.0000 6.1561 -9.2334 5.1189
-1.1679 17.5137 -2.8757 -0.1072 -22.0509 5.1498 0.0000 0.0000 0.0000 -19.7605 -2.5188 -12.6482 3.1616 10.9522 32.1187 1.3346 1.7122 -22.5052 0.3473 -3.7866 -10.4771 0.0000 0.0000 0.0000 12.1102 13.2813 -17.8815 -4.0566 -12.2353 36.5695 -1.0167 5.5094 -18.0137 -0.0029 -0.3506 0.9632 -4.6420 -0.6772 3.1116 1.0336 -1.0492 0.2250 3.7149 -0.4936 -1.4112 -13.1514 -5.0149 -17.9807 4.9487 -4.4983 23.3686 3.3111 -2.6517 10.9776 -0.0000 0.0000 0.0000 -80.7398 -4.9227 41.7367 126.6108 -54.2742 -91.0963 -0.0000 -0.0000 6.9332 16.3343 12.2470 3.5574 -7.1250 0.0000 -0.0000 -9.8248 42.5146 0.6089 -0.0000 0.0000 0.0000 80.4137 4.8174 41.8887 -141.3148 47.2713 -102.5328 0.0000 -0.0000 -1.3125 -18.7644 19.6379 -6.5136 7.1250 -0.0000 -0.0000 6.1685 -9.4263 5.1054
-1.1894 17.5134 -2.8703 -0.0954 -22.0355 4.9956 0.0000 0.0000 0.0000 -19.7227 -2.4267 -12.5205 3.1737 10.9711 32.1825 1.3335 1.7142 -22.4970 0.3406 -3.7503 -10.3751 0.0000 0.0000 0.0000 12.2029 13.3173 -17.6533 -4.0652 -12.2466 36.6101 -1.0421 5.3902 -18.2491 -0.0011 -0.2173 0.5971 -4.4072 -0.5578 2.9173 0.8749 -0.8711 0.4672 3.4063 -0.4191 -1.0763 -12.6995 -5.1235 -18.6525 4.5576 -4.5876 23.6681 3.0735 -2.6974 11.2058 0.0000 -0.0000 0.0000 -80.4646 -5.9109 41.8547 126.6343 -54.2659 -91.1153 -0.0000 -0.0000 6.5302 16.3653 12.4377 3.6190 -7.1250 0.0000 -0.0000 -9.8393 42.7124 0.5613 0.0000 -0.0000 0.0000 80.5233 5.8548 41.7644 -140.8463 47.5604 -102.1879 0.0000 -0.0000 -1.2748 -18.7477 19.4162 -6.4374 7.1250 -0.0000 -0.0000 6.1663 -9.6577 5.0747
-1.2118 17.5162 -2.8649 -0.0288 -21.9886 4.8517 0.0000 0.0000 0.0000 -19.7257 -2.2678 -12.4580 3.1822 10.9843 32.2271 1.3243 1.6503 -22.3955 0.3480 -3.7904 -10.4878 0.0000 0.0000 0.0000 12.2333 13.2381 -17.5047 -4.0753 -12.2599 36.6578 -1.0576 5.3327 -18.3907 -0.0001 -0.0737 0.2024 -4.2669 -0.4343 2.9243 0.7063 -0.7032 0.5489 3.1467 -0.3387 -1.0154 -12.2274 -5.2105 -19.1427 4.2170 -4.6979 23.9148 2.8480 -2.7460 11.3814 0.0000 0.0000 0.0000 -80.2147 -6.5034 42.0242 126.8450 -54.1913 -91.2863 -0.0000 -0.0000 6.1538 16.5024 12.7109 3.7296 -7.1250 0.0000 -0.0000 -9.7785 43.0053 0.4863 0.0000 0.0000 0.0000 80.6882 6.4643 41.6541 -140.5776 47.7240 -101.9893 0.0000 -0.0000 -1.0010 -18.7804 19.1977 -6.3801 7.1250 -0.0000 -0.0000 6.1325 -9.8796 5.0190
-1.2364 17.5185 -2.8616 -0.0404 -21.8704 4.7926 0.0000 0.0000 0.0000 -19.6427 -2.3557 -12.3323 3.1849 10.9885 32.2412 1.3256 1.7240 -22.4369 0.3583 -3.8457 -10.6429 0.0000 0.0000 0.0000 12.3593 13.1016 -17.4445 -4.0859 -12.2738 36.7077 -1.0492 5.3545 -18.3145 -0.0002 -0.0882 0.2422 -4.2166 -0.4054 2.9755 0.7127 -0.6655 0.5344 3.1242 -0.3187 -1.0627 -12.2135 -5.1796 -19.2372 4.2445 -4.6506 23.8653 2.8621 -2.7172 11.3763 0.0000 0.0000 0.0000 -80.1870 -6.8870 42.0215 127.1190 -54.0934 -91.5083 -0.0000 -0.0000 5.8126 16.7958 12.9229 3.8618 -7.1250 0.0000 -0.0000 -9.5646 43.2530 0.4164 0.0000 0.0000 0.0000 80.5980 6.7572 41.7375 -140.5732 47.7266 -101.9860 0.0000 -0.0000 -0.5674 -18.9242 19.1111 -6.4046 7.1250 -0.0000 -0.0000 6.0341 -9.9507 4.9288
-1.2612 17.5210 -2.8600 -0.0445 -21.6585 4.7304 0.0000 0.0000 0.0000 -19.5690 -2.7235 -12.1044 3.1861 10.9905 32.2477 1.3320 1.9274 -22.5760 0.3781 -3.9490 -10.9333 0.0000 0.0000 0.0000 12.4970 12.9260 -17.3671 -4.0946 -12.2852 36.7484 -1.0492 5.3090 -18.3173 -0.0012 -0.2202 0.6050 -4.2752 -0.4443 2.9805 0.8312 -0.7179 0.5471 3.2815 -0.3452 -1.0457 -12.2781 -5.0995 -19.4755 4.1793 -4.4651 23.9646 2.8766 -2.6471 11.4436 0.0000 0.0000 0.0000 -80.3450 -7.3606 41.9229 127.2902 -54.0316 -91.6470 -0.0000 -0.0000 5.6032 17.1944 12.9128 3.9558 -7.1250 0.0000 -0.0000 -9.2060 43.2851 0.3931 0.0000 0.0000 0.0000 80.2817 7.0848 41.8953 -140.6692 47.6684 -102.0571 0.0000 -0.0000 -0.1868 -18.9176 19.0660 -6.3878 7.1250 -0.0000 -0.0000 6.0358 -9.9982 4.9244
